<?xml version="1.0" encoding="UTF-8" standalone="no"?>
<!DOCTYPE svg PUBLIC "-//W3C//DTD SVG 1.1//EN"
 "http://www.w3.org/Graphics/SVG/1.1/DTD/svg11.dtd">
<!-- Generated by graphviz version 2.38.0 (20140413.2041)
 -->
<!-- Title: models_diagram Pages: 1 -->
<svg width="1323pt" height="596pt"
 viewBox="0.00 0.00 1323.34 596.00" xmlns="http://www.w3.org/2000/svg" xmlns:xlink="http://www.w3.org/1999/xlink">
<g id="graph0" class="graph" transform="scale(1 1) rotate(0) translate(4 592)">
<title>models_diagram</title>
<polygon fill="none" stroke="none" points="-4,4 -4,-592 1319.34,-592 1319.34,4 -4,4"/>
<!-- _diagram_info -->
<g id="node1" class="node"><title>_diagram_info</title>
<text text-anchor="start" x="8" y="-499.1" font-family="Times,serif" font-size="13.00">Models diagram</text>
<text text-anchor="start" x="8" y="-485.1" font-family="Times,serif" font-size="13.00">Date: Nov 10 2017 &#45; 10:59</text>
<text text-anchor="start" x="8" y="-471.1" font-family="Times,serif" font-size="13.00">Migration version: 20171021164252</text>
<text text-anchor="start" x="8" y="-457.1" font-family="Times,serif" font-size="13.00">Generated by RailRoady 1.5.3</text>
<text text-anchor="start" x="8" y="-443.1" font-family="Times,serif" font-size="13.00">http://railroady.prestonlee.com</text>
</g>
<!-- Ability -->
<g id="node2" class="node"><title>Ability</title>
<polygon fill="none" stroke="black" points="232.5,-451.5 232.5,-497.5 287.5,-497.5 287.5,-451.5 232.5,-451.5"/>
<text text-anchor="middle" x="260" y="-482.3" font-family="Times,serif" font-size="14.00">Ability</text>
<polyline fill="none" stroke="black" points="232.5,-474.5 287.5,-474.5 "/>
<text text-anchor="middle" x="260" y="-459.3" font-family="Times,serif" font-size="14.00"> </text>
</g>
<!-- ExpenseCategory -->
<g id="node3" class="node"><title>ExpenseCategory</title>
<path fill="none" stroke="black" d="M15,-203.5C15,-203.5 235,-203.5 235,-203.5 241,-203.5 247,-209.5 247,-215.5 247,-215.5 247,-312.5 247,-312.5 247,-318.5 241,-324.5 235,-324.5 235,-324.5 15,-324.5 15,-324.5 9,-324.5 3,-318.5 3,-312.5 3,-312.5 3,-215.5 3,-215.5 3,-209.5 9,-203.5 15,-203.5"/>
<text text-anchor="middle" x="125" y="-309.3" font-family="Times,serif" font-size="14.00">ExpenseCategory</text>
<polyline fill="none" stroke="black" points="3,-301.5 247,-301.5 "/>
<text text-anchor="start" x="11" y="-286.3" font-family="Times,serif" font-size="14.00">id :bigint</text>
<text text-anchor="start" x="11" y="-271.3" font-family="Times,serif" font-size="14.00">type :character varying</text>
<text text-anchor="start" x="11" y="-256.3" font-family="Times,serif" font-size="14.00">title :character varying</text>
<text text-anchor="start" x="11" y="-241.3" font-family="Times,serif" font-size="14.00">user_id :bigint</text>
<text text-anchor="start" x="11" y="-226.3" font-family="Times,serif" font-size="14.00">created_at :timestamp without time zone</text>
<text text-anchor="start" x="11" y="-211.3" font-family="Times,serif" font-size="14.00">updated_at :timestamp without time zone</text>
</g>
<!-- Capital -->
<g id="node8" class="node"><title>Capital</title>
<path fill="none" stroke="black" d="M352,-0.5C352,-0.5 572,-0.5 572,-0.5 578,-0.5 584,-6.5 584,-12.5 584,-12.5 584,-154.5 584,-154.5 584,-160.5 578,-166.5 572,-166.5 572,-166.5 352,-166.5 352,-166.5 346,-166.5 340,-160.5 340,-154.5 340,-154.5 340,-12.5 340,-12.5 340,-6.5 346,-0.5 352,-0.5"/>
<text text-anchor="middle" x="462" y="-151.3" font-family="Times,serif" font-size="14.00">Capital</text>
<polyline fill="none" stroke="black" points="340,-143.5 584,-143.5 "/>
<text text-anchor="start" x="348" y="-128.3" font-family="Times,serif" font-size="14.00">id :bigint</text>
<text text-anchor="start" x="348" y="-113.3" font-family="Times,serif" font-size="14.00">type :character varying</text>
<text text-anchor="start" x="348" y="-98.3" font-family="Times,serif" font-size="14.00">note :text</text>
<text text-anchor="start" x="348" y="-83.3" font-family="Times,serif" font-size="14.00">value :numeric(10,2)</text>
<text text-anchor="start" x="348" y="-68.3" font-family="Times,serif" font-size="14.00">implemented_at :date</text>
<text text-anchor="start" x="348" y="-53.3" font-family="Times,serif" font-size="14.00">user_id :bigint</text>
<text text-anchor="start" x="348" y="-38.3" font-family="Times,serif" font-size="14.00">category_id :bigint</text>
<text text-anchor="start" x="348" y="-23.3" font-family="Times,serif" font-size="14.00">created_at :timestamp without time zone</text>
<text text-anchor="start" x="348" y="-8.3" font-family="Times,serif" font-size="14.00">updated_at :timestamp without time zone</text>
</g>
<!-- ExpenseCategory&#45;&gt;Capital -->
<g id="edge1" class="edge"><title>ExpenseCategory&#45;&gt;Capital</title>
<path fill="none" stroke="#33f557" d="M245.041,-199.417C272.823,-184.702 302.525,-168.97 330.758,-154.015"/>
<ellipse fill="none" stroke="#33f557" cx="241.219" cy="-201.442" rx="4.00002" ry="4.00002"/>
<polygon fill="#33f557" stroke="#33f557" points="331.032,-153.871 341.975,-153.166 335.45,-151.53 339.869,-149.19 339.869,-149.19 339.869,-149.19 335.45,-151.53 337.762,-145.213 331.032,-153.871 331.032,-153.871"/>
</g>
<!-- Income -->
<g id="node4" class="node"><title>Income</title>
<path fill="none" stroke="black" d="M649,-391.5C649,-391.5 869,-391.5 869,-391.5 875,-391.5 881,-397.5 881,-403.5 881,-403.5 881,-545.5 881,-545.5 881,-551.5 875,-557.5 869,-557.5 869,-557.5 649,-557.5 649,-557.5 643,-557.5 637,-551.5 637,-545.5 637,-545.5 637,-403.5 637,-403.5 637,-397.5 643,-391.5 649,-391.5"/>
<text text-anchor="middle" x="759" y="-542.3" font-family="Times,serif" font-size="14.00">Income</text>
<polyline fill="none" stroke="black" points="637,-534.5 881,-534.5 "/>
<text text-anchor="start" x="645" y="-519.3" font-family="Times,serif" font-size="14.00">id :bigint</text>
<text text-anchor="start" x="645" y="-504.3" font-family="Times,serif" font-size="14.00">type :character varying</text>
<text text-anchor="start" x="645" y="-489.3" font-family="Times,serif" font-size="14.00">note :text</text>
<text text-anchor="start" x="645" y="-474.3" font-family="Times,serif" font-size="14.00">value :numeric(10,2)</text>
<text text-anchor="start" x="645" y="-459.3" font-family="Times,serif" font-size="14.00">implemented_at :date</text>
<text text-anchor="start" x="645" y="-444.3" font-family="Times,serif" font-size="14.00">user_id :bigint</text>
<text text-anchor="start" x="645" y="-429.3" font-family="Times,serif" font-size="14.00">category_id :bigint</text>
<text text-anchor="start" x="645" y="-414.3" font-family="Times,serif" font-size="14.00">created_at :timestamp without time zone</text>
<text text-anchor="start" x="645" y="-399.3" font-family="Times,serif" font-size="14.00">updated_at :timestamp without time zone</text>
</g>
<!-- Category -->
<g id="node5" class="node"><title>Category</title>
<path fill="none" stroke="black" d="M277,-203.5C277,-203.5 497,-203.5 497,-203.5 503,-203.5 509,-209.5 509,-215.5 509,-215.5 509,-312.5 509,-312.5 509,-318.5 503,-324.5 497,-324.5 497,-324.5 277,-324.5 277,-324.5 271,-324.5 265,-318.5 265,-312.5 265,-312.5 265,-215.5 265,-215.5 265,-209.5 271,-203.5 277,-203.5"/>
<text text-anchor="middle" x="387" y="-309.3" font-family="Times,serif" font-size="14.00">Category</text>
<polyline fill="none" stroke="black" points="265,-301.5 509,-301.5 "/>
<text text-anchor="start" x="273" y="-286.3" font-family="Times,serif" font-size="14.00">id :bigint</text>
<text text-anchor="start" x="273" y="-271.3" font-family="Times,serif" font-size="14.00">type :character varying</text>
<text text-anchor="start" x="273" y="-256.3" font-family="Times,serif" font-size="14.00">title :character varying</text>
<text text-anchor="start" x="273" y="-241.3" font-family="Times,serif" font-size="14.00">user_id :bigint</text>
<text text-anchor="start" x="273" y="-226.3" font-family="Times,serif" font-size="14.00">created_at :timestamp without time zone</text>
<text text-anchor="start" x="273" y="-211.3" font-family="Times,serif" font-size="14.00">updated_at :timestamp without time zone</text>
</g>
<!-- Category&#45;&gt;Capital -->
<g id="edge2" class="edge"><title>Category&#45;&gt;Capital</title>
<path fill="none" stroke="#7b3699" d="M415.318,-195.604C417.974,-189.283 420.695,-182.806 423.424,-176.312"/>
<ellipse fill="none" stroke="#7b3699" cx="413.732" cy="-199.378" rx="4.00002" ry="4.00002"/>
<polygon fill="#7b3699" stroke="#7b3699" points="423.547,-176.019 431.569,-168.543 425.483,-171.409 427.42,-166.8 427.42,-166.8 427.42,-166.8 425.483,-171.409 423.272,-165.056 423.547,-176.019 423.547,-176.019"/>
</g>
<!-- Expense -->
<g id="node6" class="node"><title>Expense</title>
<path fill="none" stroke="black" d="M911,-391.5C911,-391.5 1131,-391.5 1131,-391.5 1137,-391.5 1143,-397.5 1143,-403.5 1143,-403.5 1143,-545.5 1143,-545.5 1143,-551.5 1137,-557.5 1131,-557.5 1131,-557.5 911,-557.5 911,-557.5 905,-557.5 899,-551.5 899,-545.5 899,-545.5 899,-403.5 899,-403.5 899,-397.5 905,-391.5 911,-391.5"/>
<text text-anchor="middle" x="1021" y="-542.3" font-family="Times,serif" font-size="14.00">Expense</text>
<polyline fill="none" stroke="black" points="899,-534.5 1143,-534.5 "/>
<text text-anchor="start" x="907" y="-519.3" font-family="Times,serif" font-size="14.00">id :bigint</text>
<text text-anchor="start" x="907" y="-504.3" font-family="Times,serif" font-size="14.00">type :character varying</text>
<text text-anchor="start" x="907" y="-489.3" font-family="Times,serif" font-size="14.00">note :text</text>
<text text-anchor="start" x="907" y="-474.3" font-family="Times,serif" font-size="14.00">value :numeric(10,2)</text>
<text text-anchor="start" x="907" y="-459.3" font-family="Times,serif" font-size="14.00">implemented_at :date</text>
<text text-anchor="start" x="907" y="-444.3" font-family="Times,serif" font-size="14.00">user_id :bigint</text>
<text text-anchor="start" x="907" y="-429.3" font-family="Times,serif" font-size="14.00">category_id :bigint</text>
<text text-anchor="start" x="907" y="-414.3" font-family="Times,serif" font-size="14.00">created_at :timestamp without time zone</text>
<text text-anchor="start" x="907" y="-399.3" font-family="Times,serif" font-size="14.00">updated_at :timestamp without time zone</text>
</g>
<!-- IncomeCategory -->
<g id="node7" class="node"><title>IncomeCategory</title>
<path fill="none" stroke="black" d="M577,-203.5C577,-203.5 797,-203.5 797,-203.5 803,-203.5 809,-209.5 809,-215.5 809,-215.5 809,-312.5 809,-312.5 809,-318.5 803,-324.5 797,-324.5 797,-324.5 577,-324.5 577,-324.5 571,-324.5 565,-318.5 565,-312.5 565,-312.5 565,-215.5 565,-215.5 565,-209.5 571,-203.5 577,-203.5"/>
<text text-anchor="middle" x="687" y="-309.3" font-family="Times,serif" font-size="14.00">IncomeCategory</text>
<polyline fill="none" stroke="black" points="565,-301.5 809,-301.5 "/>
<text text-anchor="start" x="573" y="-286.3" font-family="Times,serif" font-size="14.00">id :bigint</text>
<text text-anchor="start" x="573" y="-271.3" font-family="Times,serif" font-size="14.00">type :character varying</text>
<text text-anchor="start" x="573" y="-256.3" font-family="Times,serif" font-size="14.00">title :character varying</text>
<text text-anchor="start" x="573" y="-241.3" font-family="Times,serif" font-size="14.00">user_id :bigint</text>
<text text-anchor="start" x="573" y="-226.3" font-family="Times,serif" font-size="14.00">created_at :timestamp without time zone</text>
<text text-anchor="start" x="573" y="-211.3" font-family="Times,serif" font-size="14.00">updated_at :timestamp without time zone</text>
</g>
<!-- IncomeCategory&#45;&gt;Capital -->
<g id="edge3" class="edge"><title>IncomeCategory&#45;&gt;Capital</title>
<path fill="none" stroke="#03e47e" d="M605.459,-198.311C595.039,-190.044 584.234,-181.472 573.442,-172.91"/>
<ellipse fill="none" stroke="#03e47e" cx="608.632" cy="-200.828" rx="4.00002" ry="4.00002"/>
<polygon fill="#03e47e" stroke="#03e47e" points="573.425,-172.898 568.388,-163.157 569.508,-169.79 565.591,-166.682 565.591,-166.682 565.591,-166.682 569.508,-169.79 562.795,-170.208 573.425,-172.898 573.425,-172.898"/>
</g>
<!-- User -->
<g id="node9" class="node"><title>User</title>
<path fill="none" stroke="black" d="M317.5,-361.5C317.5,-361.5 606.5,-361.5 606.5,-361.5 612.5,-361.5 618.5,-367.5 618.5,-373.5 618.5,-373.5 618.5,-575.5 618.5,-575.5 618.5,-581.5 612.5,-587.5 606.5,-587.5 606.5,-587.5 317.5,-587.5 317.5,-587.5 311.5,-587.5 305.5,-581.5 305.5,-575.5 305.5,-575.5 305.5,-373.5 305.5,-373.5 305.5,-367.5 311.5,-361.5 317.5,-361.5"/>
<text text-anchor="middle" x="462" y="-572.3" font-family="Times,serif" font-size="14.00">User</text>
<polyline fill="none" stroke="black" points="305.5,-564.5 618.5,-564.5 "/>
<text text-anchor="start" x="313.5" y="-549.3" font-family="Times,serif" font-size="14.00">id :bigint</text>
<text text-anchor="start" x="313.5" y="-534.3" font-family="Times,serif" font-size="14.00">email :character varying</text>
<text text-anchor="start" x="313.5" y="-519.3" font-family="Times,serif" font-size="14.00">encrypted_password :character varying</text>
<text text-anchor="start" x="313.5" y="-504.3" font-family="Times,serif" font-size="14.00">reset_password_token :character varying</text>
<text text-anchor="start" x="313.5" y="-489.3" font-family="Times,serif" font-size="14.00">reset_password_sent_at :timestamp without time zone</text>
<text text-anchor="start" x="313.5" y="-474.3" font-family="Times,serif" font-size="14.00">remember_created_at :timestamp without time zone</text>
<text text-anchor="start" x="313.5" y="-459.3" font-family="Times,serif" font-size="14.00">sign_in_count :integer</text>
<text text-anchor="start" x="313.5" y="-444.3" font-family="Times,serif" font-size="14.00">current_sign_in_at :timestamp without time zone</text>
<text text-anchor="start" x="313.5" y="-429.3" font-family="Times,serif" font-size="14.00">last_sign_in_at :timestamp without time zone</text>
<text text-anchor="start" x="313.5" y="-414.3" font-family="Times,serif" font-size="14.00">current_sign_in_ip :inet</text>
<text text-anchor="start" x="313.5" y="-399.3" font-family="Times,serif" font-size="14.00">last_sign_in_ip :inet</text>
<text text-anchor="start" x="313.5" y="-384.3" font-family="Times,serif" font-size="14.00">created_at :timestamp without time zone</text>
<text text-anchor="start" x="313.5" y="-369.3" font-family="Times,serif" font-size="14.00">updated_at :timestamp without time zone</text>
</g>
<!-- User&#45;&gt;Category -->
<g id="edge5" class="edge"><title>User&#45;&gt;Category</title>
<path fill="none" stroke="#a65bf6" d="M418.887,-353.647C416.53,-347.093 414.203,-340.623 411.944,-334.345"/>
<ellipse fill="none" stroke="#a65bf6" cx="420.292" cy="-357.552" rx="4.00001" ry="4.00001"/>
<polygon fill="#a65bf6" stroke="#a65bf6" points="411.842,-334.06 412.691,-323.127 410.15,-329.356 408.457,-324.651 408.457,-324.651 408.457,-324.651 410.15,-329.356 404.223,-326.174 411.842,-334.06 411.842,-334.06"/>
</g>
<!-- User&#45;&gt;Capital -->
<g id="edge4" class="edge"><title>User&#45;&gt;Capital</title>
<path fill="none" stroke="#11434c" d="M511.423,-353.264C514.049,-343.811 516.301,-334.318 518,-325 527.724,-271.657 529.872,-255.907 518,-203 516.006,-194.114 513.267,-185.11 510.064,-176.242"/>
<ellipse fill="none" stroke="#11434c" cx="510.243" cy="-357.348" rx="4.00001" ry="4.00001"/>
<polygon fill="#11434c" stroke="#11434c" points="509.983,-176.029 510.625,-165.081 508.201,-171.357 506.42,-166.685 506.42,-166.685 506.42,-166.685 508.201,-171.357 502.215,-168.288 509.983,-176.029 509.983,-176.029"/>
</g>
<!-- ApplicationRecord -->
<g id="node10" class="node"><title>ApplicationRecord</title>
<ellipse fill="none" stroke="black" cx="1238" cy="-474.5" rx="77.1866" ry="18"/>
<text text-anchor="middle" x="1238" y="-470.8" font-family="Times,serif" font-size="14.00">ApplicationRecord</text>
</g>
</g>
</svg>
