<?xml version="1.0" encoding="UTF-8" standalone="no"?>
<!DOCTYPE svg PUBLIC "-//W3C//DTD SVG 1.1//EN"
 "http://www.w3.org/Graphics/SVG/1.1/DTD/svg11.dtd">
<!-- Generated by graphviz version 2.38.0 (20140413.2041)
 -->
<!-- Title: controllers_diagram Pages: 1 -->
<svg width="558pt" height="484pt"
 viewBox="0.00 0.00 557.50 483.50" xmlns="http://www.w3.org/2000/svg" xmlns:xlink="http://www.w3.org/1999/xlink">
<g id="graph0" class="graph" transform="scale(1 1) rotate(0) translate(195.5 271.5)">
<title>controllers_diagram</title>
<polygon fill="none" stroke="none" points="-195.5,212 -195.5,-271.5 362,-271.5 362,212 -195.5,212"/>
<!-- _diagram_info -->
<g id="node1" class="node"><title>_diagram_info</title>
<text text-anchor="start" x="152" y="-207.6" font-family="Times,serif" font-size="13.00">Controllers diagram</text>
<text text-anchor="start" x="152" y="-193.6" font-family="Times,serif" font-size="13.00">Date: Nov 10 2017 &#45; 10:59</text>
<text text-anchor="start" x="152" y="-179.6" font-family="Times,serif" font-size="13.00">Migration version: 20171021164252</text>
<text text-anchor="start" x="152" y="-165.6" font-family="Times,serif" font-size="13.00">Generated by RailRoady 1.5.3</text>
<text text-anchor="start" x="152" y="-151.6" font-family="Times,serif" font-size="13.00">http://railroady.prestonlee.com</text>
</g>
<!-- CapitalsController -->
<g id="node2" class="node"><title>CapitalsController</title>
<path fill="none" stroke="black" d="M-52,111.5C-52,111.5 40,111.5 40,111.5 46,111.5 52,105.5 52,99.5 52,99.5 52,-89.5 52,-89.5 52,-95.5 46,-101.5 40,-101.5 40,-101.5 -52,-101.5 -52,-101.5 -58,-101.5 -64,-95.5 -64,-89.5 -64,-89.5 -64,99.5 -64,99.5 -64,105.5 -58,111.5 -52,111.5"/>
<text text-anchor="middle" x="-6" y="-86.3" font-family="Times,serif" font-size="14.00">CapitalsController</text>
<polyline fill="none" stroke="black" points="-64,-78.5 52,-78.5 "/>
<text text-anchor="start" x="-56" y="-63.3" font-family="Times,serif" font-size="14.00">create</text>
<text text-anchor="start" x="-56" y="-48.3" font-family="Times,serif" font-size="14.00">destroy</text>
<text text-anchor="start" x="-56" y="-33.3" font-family="Times,serif" font-size="14.00">edit</text>
<text text-anchor="start" x="-56" y="-18.3" font-family="Times,serif" font-size="14.00">new</text>
<text text-anchor="start" x="-56" y="-3.3" font-family="Times,serif" font-size="14.00">update</text>
<polyline fill="none" stroke="black" points="-64,4.5 52,4.5 "/>
<polyline fill="none" stroke="black" points="-64,28.5 52,28.5 "/>
<text text-anchor="start" x="-56" y="43.7" font-family="Times,serif" font-size="14.00">_layout</text>
<text text-anchor="start" x="-56" y="58.7" font-family="Times,serif" font-size="14.00">capital_params</text>
<text text-anchor="start" x="-56" y="73.7" font-family="Times,serif" font-size="14.00">set_capital</text>
<text text-anchor="start" x="-56" y="88.7" font-family="Times,serif" font-size="14.00">set_categories</text>
<text text-anchor="start" x="-56" y="103.7" font-family="Times,serif" font-size="14.00">set_user</text>
</g>
<!-- ReportController -->
<g id="node3" class="node"><title>ReportController</title>
<path fill="none" stroke="black" d="M-51.5,-129C-51.5,-129 33.5,-129 33.5,-129 39.5,-129 45.5,-135 45.5,-141 45.5,-141 45.5,-255 45.5,-255 45.5,-261 39.5,-267 33.5,-267 33.5,-267 -51.5,-267 -51.5,-267 -57.5,-267 -63.5,-261 -63.5,-255 -63.5,-255 -63.5,-141 -63.5,-141 -63.5,-135 -57.5,-129 -51.5,-129"/>
<text text-anchor="middle" x="-9" y="-251.8" font-family="Times,serif" font-size="14.00">ReportController</text>
<polyline fill="none" stroke="black" points="-63.5,-244 45.5,-244 "/>
<text text-anchor="start" x="-55.5" y="-228.8" font-family="Times,serif" font-size="14.00">show</text>
<polyline fill="none" stroke="black" points="-63.5,-221 45.5,-221 "/>
<polyline fill="none" stroke="black" points="-63.5,-197 45.5,-197 "/>
<text text-anchor="start" x="-55.5" y="-181.8" font-family="Times,serif" font-size="14.00">_layout</text>
<text text-anchor="start" x="-55.5" y="-166.8" font-family="Times,serif" font-size="14.00">filters</text>
<text text-anchor="start" x="-55.5" y="-151.8" font-family="Times,serif" font-size="14.00">set_capitals</text>
<text text-anchor="start" x="-55.5" y="-136.8" font-family="Times,serif" font-size="14.00">set_user</text>
</g>
<!-- UsersController -->
<g id="node4" class="node"><title>UsersController</title>
<path fill="none" stroke="black" d="M-179.5,-0.5C-179.5,-0.5 -100.5,-0.5 -100.5,-0.5 -94.5,-0.5 -88.5,-6.5 -88.5,-12.5 -88.5,-12.5 -88.5,-111.5 -88.5,-111.5 -88.5,-117.5 -94.5,-123.5 -100.5,-123.5 -100.5,-123.5 -179.5,-123.5 -179.5,-123.5 -185.5,-123.5 -191.5,-117.5 -191.5,-111.5 -191.5,-111.5 -191.5,-12.5 -191.5,-12.5 -191.5,-6.5 -185.5,-0.5 -179.5,-0.5"/>
<text text-anchor="middle" x="-140" y="-108.3" font-family="Times,serif" font-size="14.00">UsersController</text>
<polyline fill="none" stroke="black" points="-191.5,-100.5 -88.5,-100.5 "/>
<text text-anchor="start" x="-183.5" y="-85.3" font-family="Times,serif" font-size="14.00">profile</text>
<text text-anchor="start" x="-183.5" y="-70.3" font-family="Times,serif" font-size="14.00">show</text>
<polyline fill="none" stroke="black" points="-191.5,-62.5 -88.5,-62.5 "/>
<polyline fill="none" stroke="black" points="-191.5,-38.5 -88.5,-38.5 "/>
<text text-anchor="start" x="-183.5" y="-23.3" font-family="Times,serif" font-size="14.00">_layout</text>
<text text-anchor="start" x="-183.5" y="-8.3" font-family="Times,serif" font-size="14.00">set_user</text>
</g>
<!-- ApplicationController -->
<g id="node5" class="node"><title>ApplicationController</title>
<path fill="none" stroke="black" d="M92,207.5C92,207.5 204,207.5 204,207.5 210,207.5 216,201.5 216,195.5 216,195.5 216,126.5 216,126.5 216,120.5 210,114.5 204,114.5 204,114.5 92,114.5 92,114.5 86,114.5 80,120.5 80,126.5 80,126.5 80,195.5 80,195.5 80,201.5 86,207.5 92,207.5"/>
<text text-anchor="middle" x="148" y="129.7" font-family="Times,serif" font-size="14.00">ApplicationController</text>
<polyline fill="none" stroke="black" points="80,137.5 216,137.5 "/>
<polyline fill="none" stroke="black" points="80,161.5 216,161.5 "/>
<text text-anchor="start" x="88" y="176.7" font-family="Times,serif" font-size="14.00">check_action</text>
<polyline fill="none" stroke="black" points="80,184.5 216,184.5 "/>
<text text-anchor="start" x="88" y="199.7" font-family="Times,serif" font-size="14.00">_layout</text>
</g>
<!-- CategoriesController -->
<g id="node6" class="node"><title>CategoriesController</title>
<path fill="none" stroke="black" d="M92,79C92,79 198,79 198,79 204,79 210,73 210,67 210,67 210,-107 210,-107 210,-113 204,-119 198,-119 198,-119 92,-119 92,-119 86,-119 80,-113 80,-107 80,-107 80,67 80,67 80,73 86,79 92,79"/>
<text text-anchor="middle" x="145" y="-103.8" font-family="Times,serif" font-size="14.00">CategoriesController</text>
<polyline fill="none" stroke="black" points="80,-96 210,-96 "/>
<text text-anchor="start" x="88" y="-80.8" font-family="Times,serif" font-size="14.00">create</text>
<text text-anchor="start" x="88" y="-65.8" font-family="Times,serif" font-size="14.00">destroy</text>
<text text-anchor="start" x="88" y="-50.8" font-family="Times,serif" font-size="14.00">edit</text>
<text text-anchor="start" x="88" y="-35.8" font-family="Times,serif" font-size="14.00">new</text>
<text text-anchor="start" x="88" y="-20.8" font-family="Times,serif" font-size="14.00">update</text>
<polyline fill="none" stroke="black" points="80,-13 210,-13 "/>
<polyline fill="none" stroke="black" points="80,11 210,11 "/>
<text text-anchor="start" x="88" y="26.2" font-family="Times,serif" font-size="14.00">_layout</text>
<text text-anchor="start" x="88" y="41.2" font-family="Times,serif" font-size="14.00">category_params</text>
<text text-anchor="start" x="88" y="56.2" font-family="Times,serif" font-size="14.00">set_category</text>
<text text-anchor="start" x="88" y="71.2" font-family="Times,serif" font-size="14.00">set_user</text>
</g>
</g>
</svg>
