<?xml version="1.0" encoding="UTF-8" standalone="no"?>
<!DOCTYPE svg PUBLIC "-//W3C//DTD SVG 1.1//EN"
 "http://www.w3.org/Graphics/SVG/1.1/DTD/svg11.dtd">
<!-- Generated by graphviz version 2.38.0 (20140413.2041)
 -->
<!-- Title: models_diagram Pages: 1 -->
<svg width="733pt" height="230pt"
 viewBox="0.00 0.00 733.34 230.00" xmlns="http://www.w3.org/2000/svg" xmlns:xlink="http://www.w3.org/1999/xlink">
<g id="graph0" class="graph" transform="scale(1 1) rotate(0) translate(4 226)">
<title>models_diagram</title>
<polygon fill="none" stroke="none" points="-4,4 -4,-226 729.343,-226 729.343,4 -4,4"/>
<!-- _diagram_info -->
<g id="node1" class="node"><title>_diagram_info</title>
<text text-anchor="start" x="8" y="-207.6" font-family="Times,serif" font-size="13.00">Models diagram</text>
<text text-anchor="start" x="8" y="-193.6" font-family="Times,serif" font-size="13.00">Date: Nov 10 2017 &#45; 10:59</text>
<text text-anchor="start" x="8" y="-179.6" font-family="Times,serif" font-size="13.00">Migration version: 20171021164252</text>
<text text-anchor="start" x="8" y="-165.6" font-family="Times,serif" font-size="13.00">Generated by RailRoady 1.5.3</text>
<text text-anchor="start" x="8" y="-151.6" font-family="Times,serif" font-size="13.00">http://railroady.prestonlee.com</text>
</g>
<!-- Ability -->
<g id="node2" class="node"><title>Ability</title>
<polygon fill="none" stroke="black" points="287.5,-201 232.5,-201 232.5,-165 287.5,-165 287.5,-201"/>
<text text-anchor="middle" x="260" y="-179.3" font-family="Times,serif" font-size="14.00">Ability</text>
</g>
<!-- ExpenseCategory -->
<g id="node3" class="node"><title>ExpenseCategory</title>
<ellipse fill="none" stroke="black" cx="163" cy="-90" rx="72.5877" ry="18"/>
<text text-anchor="middle" x="163" y="-86.3" font-family="Times,serif" font-size="14.00">ExpenseCategory</text>
</g>
<!-- Capital -->
<g id="node8" class="node"><title>Capital</title>
<ellipse fill="none" stroke="black" cx="332" cy="-18" rx="36.2938" ry="18"/>
<text text-anchor="middle" x="332" y="-14.3" font-family="Times,serif" font-size="14.00">Capital</text>
</g>
<!-- ExpenseCategory&#45;&gt;Capital -->
<g id="edge1" class="edge"><title>ExpenseCategory&#45;&gt;Capital</title>
<path fill="none" stroke="#02807c" d="M206.529,-70.9701C234.133,-59.5365 269.433,-44.9155 295.554,-34.0958"/>
<ellipse fill="none" stroke="#02807c" cx="202.536" cy="-72.6241" rx="4.00001" ry="4.00001"/>
<polygon fill="#02807c" stroke="#02807c" points="295.842,-33.9765 306.803,-34.3072 300.462,-32.0631 305.081,-30.1497 305.081,-30.1497 305.081,-30.1497 300.462,-32.0631 303.359,-25.9923 295.842,-33.9765 295.842,-33.9765"/>
</g>
<!-- Income -->
<g id="node4" class="node"><title>Income</title>
<ellipse fill="none" stroke="black" cx="416" cy="-183" rx="37.8943" ry="18"/>
<text text-anchor="middle" x="416" y="-179.3" font-family="Times,serif" font-size="14.00">Income</text>
</g>
<!-- Category -->
<g id="node5" class="node"><title>Category</title>
<ellipse fill="none" stroke="black" cx="297" cy="-90" rx="42.7926" ry="18"/>
<text text-anchor="middle" x="297" y="-86.3" font-family="Times,serif" font-size="14.00">Category</text>
</g>
<!-- Category&#45;&gt;Capital -->
<g id="edge2" class="edge"><title>Category&#45;&gt;Capital</title>
<path fill="none" stroke="#c1fcb6" d="M309.143,-64.7144C312.349,-58.3016 315.821,-51.3577 319.068,-44.8648"/>
<ellipse fill="none" stroke="#c1fcb6" cx="307.261" cy="-68.4772" rx="4.00002" ry="4.00002"/>
<polygon fill="#c1fcb6" stroke="#c1fcb6" points="319.133,-44.7333 327.63,-37.8015 321.369,-40.2611 323.605,-35.789 323.605,-35.789 323.605,-35.789 321.369,-40.2611 319.581,-33.7765 319.133,-44.7333 319.133,-44.7333"/>
</g>
<!-- Expense -->
<g id="node6" class="node"><title>Expense</title>
<ellipse fill="none" stroke="black" cx="512" cy="-183" rx="40.0939" ry="18"/>
<text text-anchor="middle" x="512" y="-179.3" font-family="Times,serif" font-size="14.00">Expense</text>
</g>
<!-- IncomeCategory -->
<g id="node7" class="node"><title>IncomeCategory</title>
<ellipse fill="none" stroke="black" cx="466" cy="-90" rx="69.5877" ry="18"/>
<text text-anchor="middle" x="466" y="-86.3" font-family="Times,serif" font-size="14.00">IncomeCategory</text>
</g>
<!-- IncomeCategory&#45;&gt;Capital -->
<g id="edge3" class="edge"><title>IncomeCategory&#45;&gt;Capital</title>
<path fill="none" stroke="#aa98fd" d="M429.297,-69.8269C409.364,-59.4141 384.899,-46.6339 365.488,-36.4939"/>
<ellipse fill="none" stroke="#aa98fd" cx="433.048" cy="-71.7861" rx="4.00002" ry="4.00002"/>
<polygon fill="#aa98fd" stroke="#aa98fd" points="365.271,-36.3803 358.491,-27.7615 360.839,-34.0652 356.407,-31.7501 356.407,-31.7501 356.407,-31.7501 360.839,-34.0652 354.324,-35.7386 365.271,-36.3803 365.271,-36.3803"/>
</g>
<!-- User -->
<g id="node9" class="node"><title>User</title>
<ellipse fill="none" stroke="black" cx="333" cy="-183" rx="27.0966" ry="18"/>
<text text-anchor="middle" x="333" y="-179.3" font-family="Times,serif" font-size="14.00">User</text>
</g>
<!-- User&#45;&gt;Category -->
<g id="edge5" class="edge"><title>User&#45;&gt;Category</title>
<path fill="none" stroke="#62f318" d="M323.325,-157.543C318.423,-145.152 312.464,-130.09 307.457,-117.432"/>
<ellipse fill="none" stroke="#62f318" cx="324.926" cy="-161.59" rx="4.00001" ry="4.00001"/>
<polygon fill="#62f318" stroke="#62f318" points="307.362,-117.192 307.867,-106.238 305.522,-112.543 303.683,-107.893 303.683,-107.893 303.683,-107.893 305.522,-112.543 299.499,-109.549 307.362,-117.192 307.362,-117.192"/>
</g>
<!-- User&#45;&gt;Capital -->
<g id="edge4" class="edge"><title>User&#45;&gt;Capital</title>
<path fill="none" stroke="#fadbc4" d="M340.855,-157.251C346.923,-134.942 353.576,-101.248 349,-72 347.62,-63.1765 345.02,-53.8161 342.262,-45.4564"/>
<ellipse fill="none" stroke="#fadbc4" cx="339.68" cy="-161.364" rx="4.00001" ry="4.00001"/>
<polygon fill="#fadbc4" stroke="#fadbc4" points="342.205,-45.2938 343.135,-34.3675 340.547,-40.5765 338.89,-35.8592 338.89,-35.8592 338.89,-35.8592 340.547,-40.5765 334.644,-37.351 342.205,-45.2938 342.205,-45.2938"/>
</g>
<!-- ApplicationRecord -->
<g id="node10" class="node"><title>ApplicationRecord</title>
<ellipse fill="none" stroke="black" cx="648" cy="-183" rx="77.1866" ry="18"/>
<text text-anchor="middle" x="648" y="-179.3" font-family="Times,serif" font-size="14.00">ApplicationRecord</text>
</g>
</g>
</svg>
